<?xml version="1.0" encoding="utf-8"?>
<!-- Generator: Adobe Illustrator 16.0.3, SVG Export Plug-In . SVG Version: 6.00 Build 0)  -->
<!DOCTYPE svg PUBLIC "-//W3C//DTD SVG 1.1//EN" "http://www.w3.org/Graphics/SVG/1.1/DTD/svg11.dtd">
<svg version="1.1" id="Ebene_1" xmlns="http://www.w3.org/2000/svg" xmlns:xlink="http://www.w3.org/1999/xlink" x="0px" y="0px"
	 width="304px" height="99px" viewBox="0 0 304 99" enable-background="new 0 0 304 99" xml:space="preserve">
<g id="Documents">
	<rect x="14.5" y="21.5" fill="#343F4A" stroke="#000000" stroke-miterlimit="10" width="50" height="66"/>
	<rect x="7.5" y="15.5" fill="#587896" stroke="#3C5166" stroke-miterlimit="10" width="50" height="66"/>
</g>
<g>
	<path fill="#282E33" d="M99.439,74.389h-9.99V35.588H76.655v-8.314h35.578v8.314H99.439V74.389z"/>
	<path fill="#282E33" d="M116.642,29.046c0-3.201,1.783-4.802,5.35-4.802c3.566,0,5.35,1.601,5.35,4.802
		c0,1.526-0.446,2.712-1.337,3.561c-0.892,0.849-2.229,1.273-4.012,1.273C118.425,33.88,116.642,32.269,116.642,29.046z
		 M126.89,74.389h-9.829V38.359h9.829V74.389z"/>
	<path fill="#282E33" d="M168.81,74.389h-9.829V53.345c0-2.599-0.462-4.549-1.386-5.849c-0.924-1.3-2.396-1.95-4.415-1.95
		c-2.75,0-4.737,0.918-5.962,2.755s-1.837,4.882-1.837,9.136v16.951h-9.829V38.359h7.509l1.321,4.608h0.548
		c1.096-1.74,2.605-3.056,4.528-3.948c1.922-0.891,4.109-1.337,6.558-1.337c4.189,0,7.369,1.133,9.539,3.4
		c2.17,2.267,3.255,5.538,3.255,9.813V74.389z"/>
	<path fill="#282E33" d="M172.123,38.359h10.764l6.8,20.271c0.58,1.762,0.978,3.846,1.192,6.252h0.193
		c0.236-2.212,0.698-4.297,1.386-6.252l6.671-20.271h10.538l-15.243,40.638c-1.397,3.759-3.389,6.574-5.978,8.443
		c-2.589,1.869-5.613,2.804-9.072,2.804c-1.697,0-3.363-0.183-4.995-0.548v-7.799c1.181,0.279,2.47,0.419,3.867,0.419
		c1.74,0,3.26-0.532,4.56-1.595c1.3-1.063,2.315-2.67,3.045-4.818l0.58-1.772L172.123,38.359z"/>
	<path fill="#004B6B" d="M253.037,50.38c0,7.756-2.208,13.696-6.623,17.821s-10.791,6.188-19.126,6.188h-13.342V27.273h14.792
		c7.691,0,13.664,2.03,17.918,6.091S253.037,43.097,253.037,50.38z M242.66,50.638c0-10.119-4.469-15.179-13.406-15.179h-5.317
		v30.68h4.286C237.847,66.139,242.66,60.972,242.66,50.638z"/>
	<path fill="#004B6B" d="M259.832,27.273h14.663c6.682,0,11.532,0.951,14.55,2.852c3.018,1.901,4.528,4.926,4.528,9.072
		c0,2.815-0.661,5.124-1.982,6.929s-3.078,2.89-5.269,3.255v0.322c2.986,0.666,5.14,1.913,6.461,3.738
		c1.321,1.826,1.982,4.254,1.982,7.283c0,4.297-1.552,7.649-4.657,10.055c-3.105,2.406-7.321,3.609-12.649,3.609h-17.628V27.273z
		 M269.822,45.933h5.801c2.707,0,4.667-0.419,5.881-1.257c1.213-0.838,1.821-2.224,1.821-4.157c0-1.805-0.661-3.099-1.982-3.883
		c-1.321-0.784-3.411-1.176-6.268-1.176h-5.253V45.933z M269.822,53.86v12.278h6.51c2.75,0,4.78-0.526,6.091-1.579
		c1.31-1.052,1.966-2.664,1.966-4.834c0-3.91-2.793-5.865-8.379-5.865H269.822z"/>
</g>
<g>
</g>
<g>
</g>
<g>
</g>
<g>
</g>
<g>
</g>
<g>
</g>
<g>
</g>
<g>
</g>
<g>
</g>
<g>
</g>
<g>
</g>
<g>
</g>
<g>
</g>
<g>
</g>
<g>
</g>
</svg>
